<svg width="75" height="58" viewBox="0 0 75 58" fill="none" xmlns="http://www.w3.org/2000/svg">
<path d="M67.5767 9.76701H65.9094V8.09985C65.9094 4.17509 62.7166 0.982178 58.7918 0.982178H7.70106C3.77629 0.982178 0.583374 4.17522 0.583374 8.09985V41.5403C0.583374 45.4649 3.77642 48.658 7.70106 48.658H9.36822V50.3251C9.36822 54.2499 12.5613 57.4428 16.4859 57.4428H67.5764C71.5012 57.4428 74.6942 54.2499 74.6942 50.3251V16.8847C74.6941 12.9599 71.5013 9.76701 67.5767 9.76701ZM69.4495 50.325C69.4495 51.3595 68.6109 52.1981 67.5765 52.1981H16.4859C15.4514 52.1981 14.6128 51.3595 14.6128 50.325V48.6579V46.0356V43.4133V16.8847C14.6128 15.8501 15.4514 15.0116 16.4859 15.0116H60.6648H63.2871H65.9094H67.5767C68.611 15.0116 69.4496 15.8502 69.4496 16.8847V50.325H69.4495ZM5.82798 41.5402V8.09985C5.82798 7.06538 6.66658 6.22678 7.70106 6.22678H58.7918C59.8262 6.22678 60.6648 7.06538 60.6648 8.09985V9.76701H16.4859C12.5613 9.76701 9.36822 12.96 9.36822 16.8847V43.4133H7.70118C6.66658 43.4133 5.82798 42.5747 5.82798 41.5402Z" fill="#00AC4E"/>
<path d="M67.5771 57.5046H16.4864C12.528 57.5046 9.30755 54.2841 9.30755 50.3257V48.7197H7.70172C3.74329 48.7197 0.522827 45.4993 0.522827 41.5409V8.10052C0.522827 4.14209 3.74329 0.921631 7.70172 0.921631H58.7925C62.7508 0.921631 65.9713 4.14209 65.9713 8.10052V9.70646H67.5773C71.5356 9.70646 74.7561 12.9269 74.7561 16.8853V50.3257C74.756 54.2841 71.5356 57.5046 67.5771 57.5046ZM7.70172 1.04393C3.81075 1.04393 0.64525 4.20955 0.64525 8.10052V41.541C0.64525 45.4318 3.81075 48.5974 7.70172 48.5974H9.4301V50.3258C9.4301 54.2167 12.5956 57.3823 16.4866 57.3823H67.5771C71.4681 57.3823 74.6337 54.2168 74.6337 50.3258V16.8853C74.6337 12.9944 71.4683 9.82889 67.5773 9.82889H65.8488V8.10052C65.8488 4.20955 62.6835 1.04405 58.7925 1.04405H7.70172V1.04393ZM67.5773 52.26H16.4866C15.42 52.26 14.5523 51.3922 14.5523 50.3257V16.8853C14.5523 15.8188 15.42 14.9511 16.4866 14.9511H67.5773C68.6439 14.9511 69.5115 15.8188 69.5115 16.8853V50.3257C69.5114 51.3922 68.6438 52.26 67.5773 52.26ZM16.4866 15.0735C15.4875 15.0735 14.6747 15.8864 14.6747 16.8853V50.3257C14.6747 51.3248 15.4875 52.1375 16.4866 52.1375H67.5773C68.5763 52.1375 69.3891 51.3248 69.3891 50.3257V16.8853C69.3891 15.8863 68.5763 15.0735 67.5773 15.0735H16.4866ZM9.4301 43.4751H7.70185C6.6353 43.4751 5.76744 42.6074 5.76744 41.5409V8.10052C5.76744 7.03397 6.63517 6.16623 7.70172 6.16623H58.7925C59.859 6.16623 60.7266 7.03397 60.7266 8.10052V9.82889H16.4866C12.5956 9.82889 9.4301 12.9944 9.4301 16.8853V43.4751ZM7.70172 6.28853C6.70263 6.28853 5.88986 7.1013 5.88986 8.10039V41.5409C5.88986 42.5398 6.70275 43.3527 7.70185 43.3527H9.30779V16.8853C9.30779 12.9269 12.5283 9.70646 16.4867 9.70646H60.6043V8.10052C60.6043 7.10142 59.7916 6.28866 58.7926 6.28866H7.70172V6.28853Z" fill="#00AC4E"/>
<path d="M61.983 44.4315L60.2574 42.7057L51.9017 34.3501C51.1703 33.6185 49.9844 33.6185 49.2529 34.3501L44.5049 39.0979L35.6353 30.2283C34.9038 29.4967 33.7177 29.4967 32.9864 30.2283L19.8015 43.4131L18.783 44.4315C18.3459 44.8686 18.1702 45.4677 18.2553 46.0354C18.3127 46.4178 18.4884 46.7861 18.783 47.0805L19.8427 48.1401C20.1219 48.4193 20.4675 48.5916 20.8287 48.6577C21.0523 48.6986 21.2819 48.6986 21.5054 48.6577C21.8667 48.5917 22.2123 48.4195 22.4915 48.1401L24.5962 46.0354L27.2185 43.4131L32.9863 37.6454C33.7177 36.9138 34.9038 36.9138 35.6351 37.6454L41.4027 43.4131L44.025 46.0354L46.1299 48.1401C46.4091 48.4193 46.7547 48.5916 47.116 48.6577C47.3395 48.6986 47.5691 48.6986 47.7926 48.6577C48.1539 48.5917 48.4994 48.4195 48.7787 48.1401L49.8384 47.0805C50.1327 46.786 50.3085 46.4178 50.3659 46.0354C50.451 45.4677 50.2756 44.8687 49.8384 44.4315L48.8199 43.4131L48.2135 42.8066L50.5771 40.4427L53.5476 43.4131L56.1699 46.0354L58.2745 48.1401C58.5384 48.4039 58.8617 48.5721 59.2012 48.6456C59.6462 48.7419 60.1192 48.6748 60.5247 48.4441C60.6675 48.3628 60.8019 48.2619 60.9236 48.1402L61.983 47.0806C62.67 46.3939 62.7118 45.3064 62.109 44.5706C62.0696 44.5227 62.0277 44.4763 61.983 44.4315Z" fill="#00AC4E"/>
<path d="M47.4549 48.7503C47.338 48.7503 47.2205 48.7395 47.1055 48.7186C46.7182 48.6478 46.3661 48.463 46.0872 48.1841L35.5924 37.6893C35.2502 37.347 34.7951 37.1586 34.3112 37.1586C33.8273 37.1586 33.3722 37.347 33.03 37.6893L22.5353 48.1841C22.2566 48.463 21.9043 48.6478 21.517 48.7186C21.2872 48.7605 21.0481 48.7605 20.8182 48.7186C20.4309 48.6478 20.0788 48.463 19.7999 48.1841L18.7402 47.1245C18.4455 46.83 18.2571 46.4567 18.1953 46.0452C18.1046 45.4402 18.3083 44.821 18.7402 44.3891L32.9436 30.1858C33.3089 29.8205 33.7947 29.6193 34.3113 29.6193C34.8279 29.6193 35.3137 29.8205 35.679 30.1858L44.5055 39.0123L49.2102 34.3077C49.5755 33.9424 50.0612 33.7411 50.5779 33.7411C51.0947 33.7411 51.5803 33.9424 51.9456 34.3077L62.027 44.3891C62.0715 44.4337 62.1153 44.4819 62.157 44.5323C62.7893 45.3041 62.7333 46.4184 62.027 47.1247L60.9675 48.1842C60.8453 48.3064 60.7067 48.4119 60.5557 48.498C60.2659 48.663 59.9356 48.7502 59.6003 48.7502C59.6002 48.7502 59.6002 48.7502 59.6002 48.7502C59.4621 48.7502 59.3237 48.7355 59.1891 48.7062C58.826 48.6278 58.495 48.4473 58.232 48.1842L50.5779 40.5302L48.3009 42.8075L49.8826 44.3892C50.3144 44.821 50.518 45.4402 50.4272 46.0454C50.3655 46.4566 50.1772 46.8297 49.8826 47.1247L48.8229 48.1842C48.544 48.4631 48.1919 48.648 47.8046 48.7187C47.6894 48.7395 47.5718 48.7503 47.4549 48.7503ZM34.3113 37.0361C34.8279 37.0361 35.3137 37.2374 35.679 37.6027L46.1739 48.0975C46.4351 48.3588 46.7649 48.5319 47.1277 48.5981C47.3429 48.6376 47.5672 48.6376 47.7824 48.5981C48.1451 48.5319 48.475 48.3588 48.7362 48.0975L49.7959 47.038C50.0718 46.7618 50.2483 46.4123 50.3062 46.027C50.3911 45.4601 50.2004 44.8801 49.7959 44.4755L48.1276 42.8073L50.5778 40.3569L58.3185 48.0975C58.5651 48.344 58.8749 48.5131 59.2149 48.5865C59.648 48.68 60.112 48.6095 60.4952 48.3915C60.6367 48.3109 60.7666 48.2119 60.881 48.0975L61.9404 47.038C62.602 46.3765 62.6544 45.3326 62.0623 44.61C62.0233 44.5627 61.9823 44.5174 61.9404 44.4755L51.8591 34.3941C51.5169 34.0518 51.0619 33.8634 50.5779 33.8634C50.094 33.8634 49.639 34.0518 49.2968 34.3941L44.5055 39.1853L35.5925 30.2723C35.2503 29.93 34.7953 29.7416 34.3113 29.7416C33.8274 29.7416 33.3725 29.93 33.0302 30.2723L18.8269 44.4755C18.4223 44.8801 18.2315 45.4602 18.3166 46.027C18.3744 46.4124 18.5509 46.762 18.8269 47.038L19.8866 48.0975C20.1478 48.3588 20.4776 48.5319 20.8404 48.5981C21.0558 48.6376 21.2799 48.6376 21.4952 48.5981C21.8579 48.5319 22.1879 48.3588 22.449 48.0975L32.9437 37.6027C33.3089 37.2374 33.7947 37.0361 34.3113 37.0361Z" fill="#00AC4E"/>
<path d="M60.6648 18.2902C59.848 17.9693 58.9589 17.7928 58.0299 17.7928C54.0449 17.7928 50.8029 21.0349 50.8029 25.0197C50.8029 29.0047 54.0449 32.2466 58.0299 32.2466C58.9591 32.2466 59.8481 32.0702 60.6648 31.7492C61.6672 31.3552 62.5606 30.7436 63.2871 29.9728C64.5075 28.6783 65.2566 26.935 65.2566 25.0197C65.2566 23.1045 64.5075 21.3611 63.2871 20.0666C62.5606 19.2958 61.6671 18.6841 60.6648 18.2902ZM58.0295 27.002C56.9349 27.002 56.0473 26.1144 56.0473 25.0197C56.0473 23.925 56.9349 23.0376 58.0295 23.0376C59.1243 23.0376 60.0119 23.9251 60.0119 25.0197C60.012 26.1144 59.1245 27.002 58.0295 27.002Z" fill="#00AC4E"/>
<path d="M58.0304 32.3083C54.0116 32.3083 50.7422 29.0389 50.7422 25.0203C50.7422 21.0016 54.0116 17.7322 58.0304 17.7322C58.9464 17.7322 59.8406 17.901 60.6877 18.2339C61.6811 18.6242 62.5956 19.2436 63.3323 20.0252C64.6131 21.3838 65.3185 23.1577 65.3185 25.0203C65.3185 26.8828 64.6131 28.6567 63.3323 30.0154C62.5958 30.7968 61.6814 31.4161 60.6877 31.8068C59.8407 32.1395 58.9467 32.3083 58.0304 32.3083ZM58.0304 17.8546C54.0792 17.8546 50.8646 21.0691 50.8646 25.0203C50.8646 28.9715 54.0792 32.1859 58.0304 32.1859C58.9312 32.1859 59.8102 32.02 60.643 31.6927C61.6199 31.3088 62.5189 30.6998 63.2431 29.9314C64.5024 28.5955 65.196 26.8515 65.196 25.0203C65.196 23.1891 64.5024 21.4449 63.2431 20.1091C62.5188 19.3407 61.6196 18.7316 60.643 18.3478C59.8101 18.0206 58.9312 17.8546 58.0304 17.8546ZM58.0302 27.0639C56.9034 27.0639 55.9868 26.1472 55.9868 25.0204C55.9868 23.8936 56.9034 22.977 58.0302 22.977C59.1571 22.977 60.0738 23.8937 60.0738 25.0204C60.0739 26.1472 59.1571 27.0639 58.0302 27.0639ZM58.0302 23.0993C56.971 23.0993 56.1092 23.9611 56.1092 25.0203C56.1092 26.0796 56.971 26.9413 58.0302 26.9413C59.0895 26.9413 59.9514 26.0795 59.9514 25.0203C59.9515 23.9611 59.0896 23.0993 58.0302 23.0993Z" fill="#00AC4E"/>
</svg>
